<svg viewBox="0 0 72 72" xmlns="http://www.w3.org/2000/svg"><path d="m31.591 39.3414.009-.0114c-.0129-.0246-.0339-.0434-.0486-.0668a1.081 1.081 0 0 0 -.0868-.1193 1.1028 1.1028 0 0 0 -.1277-.13 1.0309 1.0309 0 0 0 -.1049-.0818 1.09 1.09 0 0 0 -.2061-.1076c-.0175-.0069-.0313-.02-.0493-.0258-.0083-.0028-.0169-.0017-.0252-.0043a.9609.9609 0 0 0 -.2545-.0424c-.0285-.0018-.056-.0069-.0843-.0065-.0115.0006-.0228-.0037-.0342-.0027l-8.6729.381a1.0992 1.0992 0 0 0 -1.0506 1.0978v2.4014a1.1058 1.1058 0 0 0 .01.1471 4.6005 4.6005 0 0 0 1.7878 3.1732 7.1609 7.1609 0 0 0 4.2388 1.2147 8.0249 8.0249 0 0 0 1.0377-.06v-.0245a1.08 1.08 0 0 0 .7249-.4l2.8492-3.7667a1.103 1.103 0 0 0 .2221-.6631v-2.4037a1.0834 1.0834 0 0 0 -.1344-.4986zm-7.6 1.2911c-.4664 0-.8446-.2268-.8446-.5064s.3782-.5064.8446-.5064.8445.2267.8445.5064-.3782.5064-.8446.5064zm3.3872 1.1953c-1.0616 0-1.9222-.516-1.9222-1.1525s.8606-1.1524 1.9222-1.1524 1.9218.5159 1.9218 1.1524-.86 1.1525-1.9219 1.1525z"/><path d="m30.9046 57.9627a1.0919 1.0919 0 0 1 -.4546-.0992l-20.9672-9.546a1.09 1.09 0 0 1 -.6407-.9926v-4.3764a1.09 1.09 0 0 1 .5562-.95l34.4517-19.4374a1.0957 1.0957 0 0 1 .9755-.0512l20.3725 8.8201a1.09 1.09 0 0 1 .1155 1.9436l-33.3135 19.3798v4.2175a1.0945 1.0945 0 0 1 -1.0953 1.0918z" fill="#a57939"/><path d="m64.813 32.263v4.79l-33.965 19.911v-5.301z" fill="#6a462f"/><path d="m27.7773 47.1087a1.098 1.098 0 0 1 -1.0989-1.0987v-2.4018a1.1034 1.1034 0 0 1 .2222-.6632l2.8494-3.7677a1.0991 1.0991 0 0 1 1.9756.6631v2.4028a1.103 1.103 0 0 1 -.2221.6631l-2.8495 3.7667a1.099 1.099 0 0 1 -.8767.4357z" fill="#f1b31c"/><path d="m27.9857 44.1714-.0571 2.9265a8.0249 8.0249 0 0 1 -1.0377.06 7.1609 7.1609 0 0 1 -4.2388-1.2147 4.6005 4.6005 0 0 1 -1.7878-3.1732 1.1058 1.1058 0 0 1 -.01-.1471v-2.4015a1.0992 1.0992 0 0 1 1.0506-1.0978l8.6729-.381a1.0885 1.0885 0 0 1 1.0222.5874z" fill="#fcea2b"/><ellipse cx="27.3781" cy="40.6754" fill="#f1b31c" rx="1.9222" ry="1.1525"/><ellipse cx="23.9909" cy="40.1261" fill="#f1b31c" rx=".8445" ry=".5064"/><g fill="none" stroke="#000" stroke-linecap="round" stroke-linejoin="round" stroke-width="2"><path d="m29.311 31.934-19.462 11.016v4.406l21.035 9.608 33.965-19.911v-4.79l-6.574 3.743"/><path d="m31.8635 30.1233 10.2022-8.5952a3.6558 3.6558 0 0 1 4.1018-.5243l13.3418 5.769a2.6207 2.6207 0 0 1 .2877 4.3617l-11.8813 9.678"/><path d="m33.449 39.8462 16.0519-13.4028s-1.31-2.673 1.0547-3.0178"/><path d="m38.822 47.109-7.974 4.554-6.857-2.845"/><path d="m32.38 37.0435s1.3494-3.129 3.8656-1.4244"/><path d="m29.1092 35.5656s1.3493-3.129 3.8656-1.4245"/><path d="m41.5841 41.2459s1.3494-3.129 3.8656-1.4244"/><path d="m38.3133 39.768s1.3494-3.129 3.8656-1.4245"/></g></svg>