<svg enable-background="new 0 0 128 128" viewBox="0 0 128 128" xmlns="http://www.w3.org/2000/svg" xmlns:xlink="http://www.w3.org/1999/xlink"><linearGradient id="a"><stop offset=".0011619" stop-color="#b4391f"/><stop offset=".2918" stop-color="#ac391f"/><stop offset=".7366" stop-color="#97391f"/><stop offset="1" stop-color="#87391f"/></linearGradient><linearGradient id="b" gradientUnits="userSpaceOnUse" x1="21.271" x2="21.271" xlink:href="#a" y1="71.75" y2="94.762"/><linearGradient id="c"><stop offset="0" stop-color="#d56437"/><stop offset=".3198" stop-color="#d26035"/><stop offset=".6082" stop-color="#c7552f"/><stop offset=".8837" stop-color="#b64325"/><stop offset="1" stop-color="#ac391f"/></linearGradient><linearGradient id="d" gradientUnits="userSpaceOnUse" x1="82.338" x2="82.338" xlink:href="#c" y1="88.5" y2="109.04"/><linearGradient id="e" gradientUnits="userSpaceOnUse" x1="60.638" x2="60.638" xlink:href="#c" y1="3.8333" y2="22.049"/><linearGradient id="f" gradientUnits="userSpaceOnUse" x1="103.5" x2="103.5" xlink:href="#c" y1="-4.5" y2="28.265"/><linearGradient id="g" gradientUnits="userSpaceOnUse" x1="80.506" x2="80.506" xlink:href="#a" y1="53" y2="81.777"/><linearGradient id="h" gradientUnits="userSpaceOnUse" x1="39.826" x2="39.826" xlink:href="#c" y1="20" y2="39.79"/><path d="m4 4h120v120h-120z" fill="#ffd3c2"/><path d="m4.27 21.37h13.55v14.49h-13.55z" fill="#b34a30"/><path d="m4.27 38.48h34.01v14.49h-34.01z" fill="#d56437"/><path d="m4.27 56.92h13.55v14.49h-13.55z" fill="#c74122"/><path d="m4.27 74.2h34.01v14.49h-34.01z" fill="url(#b)"/><path d="m4.27 91.92h16.55v14.49h-16.55z" fill="#d56437"/><path d="m4.27 109.65h38.56v14.49h-38.56z" fill="#d56437"/><path d="m45.83 109.65h38.56v14.49h-38.56z" fill="#b53e26"/><path d="m87.67 109.65h36.33v14.49h-36.33z" fill="#d56437"/><path d="m23.82 91.92h38.01v14.49h-38.01z" fill="#e96e49"/><path d="m64.83 91.92h35.01v14.49h-35.01z" fill="url(#d)"/><path d="m102.85 91.92h21.16v14.49h-21.16z" fill="#c6481b"/><path d="m41.28 74.2h38.72v14.49h-38.72z" fill="#d56437"/><path d="m83 74.2h41v14.49h-41z" fill="#bf471b"/><path d="m4.27 4h34.01v14.49h-34.01z" fill="#b65324"/><path d="m41.28 4h38.72v14.49h-38.72z" fill="url(#e)"/><path d="m83 4h41v14.49h-41z" fill="url(#f)"/><path d="m20.82 56.92h37.19v14.49h-37.19z" fill="#d56437"/><path d="m61.01 56.92h38.99v14.49h-38.99z" fill="url(#g)"/><g fill="#d56437"><path d="m103 56.92h21v14.49h-21z"/><path d="m41.28 38.48h38.72v14.49h-38.72z"/><path d="m83 38.48h41v14.49h-41z"/></g><path d="m20.82 21.37h38.01v14.49h-38.01z" fill="url(#h)"/><path d="m61.83 21.37h38.01v14.49h-38.01z" fill="#ac391f"/><path d="m102.84 21.37h21.16v14.49h-21.16z" fill="#d56437"/><path d="m121 7v114h-114v-114zm3-3h-120v120h120z" fill="#424242" opacity=".2"/></svg>